<svg xmlns="http://www.w3.org/2000/svg" width="24" height="24" viewBox="0 0 24 24">
    <path fill="#FFF" fill-rule="nonzero" d="M12.005 1C5.937 1 1.003 5.932 1 11.995c0 2.078.581 4.101 1.682 5.852l.261.416-1.111 4.058 4.163-1.092.402.238A10.983 10.983 0 0 0 11.996 23H12c6.063 0 10.997-4.933 11-10.996a10.928 10.928 0 0 0-3.219-7.78A10.927 10.927 0 0 0 12.005 1zm6.47 15.723c-.276.772-1.597 1.477-2.232 1.572-.57.085-1.29.12-2.083-.131a19.098 19.098 0 0 1-1.885-.697c-3.317-1.431-5.484-4.77-5.65-4.99-.164-.222-1.35-1.794-1.35-3.42 0-1.628.855-2.428 1.158-2.758.303-.331.662-.414.882-.414.22 0 .44.002.633.012.204.01.476-.078.744.567.276.662.937 2.289 1.02 2.454.083.166.138.359.028.58-.11.22-.477.696-.827 1.13-.147.182-.338.344-.145.675.193.33.857 1.413 1.84 2.29 1.263 1.126 2.328 1.475 2.659 1.64.33.166.523.138.716-.082.193-.22.827-.965 1.047-1.296.22-.331.441-.276.744-.166.304.11 1.93.91 2.26 1.076.33.165.55.248.633.386.083.138.083.8-.192 1.572z"/>
</svg>
